<?xml version="1.0" encoding="utf-8"?>
<!-- Generator: Adobe Illustrator 18.1.1, SVG Export Plug-In . SVG Version: 6.00 Build 0)  -->
<svg version="1.1" id="Layer_1" xmlns="http://www.w3.org/2000/svg" xmlns:xlink="http://www.w3.org/1999/xlink" x="0px" y="0px"
	 viewBox="0 0 48.1 48.1" enable-background="new 0 0 48.1 48.1" xml:space="preserve">
<path fill="#F05225" d="M48.1,45.9c0,1.3-1,2.3-2.3,2.3H2.3c-1.3,0-2.3-1-2.3-2.3V2.3C0,1,1,0,2.3,0h43.6c1.3,0,2.3,1,2.3,2.3V45.9z
	"/>
<g>
	<path fill="#FFFFFF" d="M17.7,37.1c-0.3,0-0.6,0.2-0.7,0.5l-1.2,4.5c-0.1,0.3,0.1,0.5,0.4,0.5c0.3,0,0.6-0.2,0.7-0.5l1.2-4.5
		C18.1,37.4,18,37.1,17.7,37.1"/>
	<path fill="#FFFFFF" d="M3.9,37.1c-0.3,0-0.5,0.2-0.5,0.5v4.5c0,0.3,0.2,0.5,0.5,0.5s0.5-0.2,0.5-0.5v-1.7H3.9
		c-0.3,0-0.5-0.2-0.5-0.5c0-0.3,0.2-0.5,0.5-0.5h0.5v-1.7C4.4,37.4,4.2,37.1,3.9,37.1"/>
	<path fill="#FFFFFF" d="M8,39.9c0,0.3-0.2,0.5-0.5,0.5H7v1.7c0,0.3,0.2,0.5,0.5,0.5c0.3,0,0.5-0.2,0.5-0.5V39.9 M7.5,37.1
		c-0.3,0-0.5,0.2-0.5,0.5v1.7h0.5c0.3,0,0.5,0.2,0.5,0.5v-2.3C8,37.4,7.8,37.1,7.5,37.1"/>
	<polyline fill="#FFFFFF" points="7,39.4 4.4,39.4 4.4,40.4 7,40.4 7,39.4 	"/>
	<path fill="#FFFFFF" d="M4.4,39.4H3.9c-0.3,0-0.5,0.2-0.5,0.5c0,0.3,0.2,0.5,0.5,0.5h0.5V39.4"/>
	<path fill="#FFFFFF" d="M7.5,39.4H7v1h0.5c0.3,0,0.5-0.2,0.5-0.5C8,39.6,7.8,39.4,7.5,39.4"/>
	<path fill="#FFFFFF" d="M12.9,37.1c-0.3,0-0.6,0.2-0.7,0.5L11,42.1c-0.1,0.3,0.1,0.5,0.4,0.5s0.6-0.2,0.7-0.5l1.2-4.5
		C13.3,37.4,13.2,37.1,12.9,37.1"/>
	<path fill="#FFFFFF" d="M41.2,42.7c-0.3,0-0.5-0.2-0.5-0.5v-4.5c0-0.3,0.2-0.5,0.5-0.5c0.3,0,0.5,0.2,0.5,0.5v4.5
		C41.7,42.4,41.5,42.7,41.2,42.7"/>
	<path fill="#FFFFFF" d="M44.2,37.1h-3c-0.3,0-0.5,0.2-0.5,0.5c0-0.3,0.2-0.5,0.5-0.5c0.3,0,0.5,0.2,0.5,0.5v0.5h2.5
		c0.3,0,0.5-0.2,0.5-0.5S44.5,37.1,44.2,37.1"/>
	<path fill="#FFFFFF" d="M41.2,37.1c-0.3,0-0.5,0.2-0.5,0.5s0.2,0.5,0.5,0.5h0.5v-0.5C41.7,37.4,41.5,37.1,41.2,37.1"/>
	<path fill="#FFFFFF" d="M44.2,41.6h-2.5v0.5c0,0.3-0.2,0.5-0.5,0.5h3c0.3,0,0.5-0.2,0.5-0.5C44.7,41.9,44.5,41.6,44.2,41.6"/>
	<path fill="#FFFFFF" d="M41.7,41.6h-0.5c-0.3,0-0.5,0.2-0.5,0.5c0,0.3,0.2,0.5,0.5,0.5c0.3,0,0.5-0.2,0.5-0.5V41.6"/>
	<path fill="#FFFFFF" d="M43.8,39.4h-2v1h2c0.3,0,0.5-0.2,0.5-0.5C44.3,39.6,44.1,39.4,43.8,39.4"/>
	<path fill="#FFFFFF" d="M41.7,39.4h-0.5c-0.3,0-0.5,0.2-0.5,0.5c0,0.3,0.2,0.5,0.5,0.5h0.5V39.4"/>
	<path fill="#FFFFFF" d="M21.5,37.1c-0.3,0-0.5,0.2-0.5,0.5v4.5c0,0.3,0.2,0.5,0.5,0.5c-0.3,0-0.5-0.2-0.5-0.5
		c0-0.3,0.2-0.5,0.5-0.5h0.5v-4C22.1,37.4,21.8,37.1,21.5,37.1"/>
	<path fill="#FFFFFF" d="M24.2,41.6h-2.1v0.5c0,0.3-0.2,0.5-0.5,0.5h2.7c0.3,0,0.5-0.2,0.5-0.5C24.7,41.9,24.5,41.6,24.2,41.6"/>
	<path fill="#FFFFFF" d="M22.1,41.6h-0.5c-0.3,0-0.5,0.2-0.5,0.5c0,0.3,0.2,0.5,0.5,0.5c0.3,0,0.5-0.2,0.5-0.5V41.6"/>
	<path fill="#FFFFFF" d="M34.9,38.2h-1v4c0,0.3,0.2,0.5,0.5,0.5c0.3,0,0.5-0.2,0.5-0.5V38.2"/>
	<path fill="#FFFFFF" d="M36.3,37.1h-3.8c-0.3,0-0.5,0.2-0.5,0.5s0.2,0.5,0.5,0.5h1.4v-0.5c0-0.3,0.2-0.5,0.5-0.5
		c0.3,0,0.5,0.2,0.5,0.5v0.5h1.4c0.3,0,0.5-0.2,0.5-0.5S36.6,37.1,36.3,37.1"/>
	<path fill="#FFFFFF" d="M34.4,37.1c-0.3,0-0.5,0.2-0.5,0.5v0.5h1v-0.5C34.9,37.4,34.7,37.1,34.4,37.1"/>
	<path fill="#FFFFFF" d="M29.4,37.1c-0.3,0-0.6,0.2-0.7,0.5l-1.2,4.5c-0.1,0.3,0.1,0.5,0.4,0.5c0.3,0,0.6-0.2,0.7-0.5l1.2-4.5
		C29.8,37.4,29.7,37.1,29.4,37.1"/>
	<path fill="#FFFFFF" d="M26.1,21.4h-10c-1.1,0-1.9,0.9-1.9,1.9s0.9,1.9,1.9,1.9h10c1.1,0,1.9-0.9,1.9-1.9S27.2,21.4,26.1,21.4"/>
	<circle fill="#FFFFFF" cx="31.9" cy="23.4" r="1.9"/>
	<circle fill="#FFFFFF" cx="10.4" cy="23.4" r="1.9"/>
	<circle fill="#FFFFFF" cx="37.8" cy="23.4" r="1.9"/>
	<circle fill="#FFFFFF" cx="15.4" cy="7.1" r="1.9"/>
	<circle fill="#FFFFFF" cx="21.2" cy="7.1" r="1.9"/>
	<circle fill="#FFFFFF" cx="32.8" cy="7.1" r="1.9"/>
	<circle fill="#FFFFFF" cx="27" cy="7.1" r="1.9"/>
	<circle fill="#FFFFFF" cx="14.4" cy="15.2" r="1.9"/>
	<circle fill="#FFFFFF" cx="20.2" cy="15.2" r="1.9"/>
	<circle fill="#FFFFFF" cx="33.7" cy="15.2" r="1.9"/>
	<circle fill="#FFFFFF" cx="27.9" cy="15.2" r="1.9"/>
	<circle fill="#FFFFFF" cx="8.5" cy="31.5" r="1.9"/>
	<circle fill="#FFFFFF" cx="14.2" cy="31.5" r="1.9"/>
	<path fill="#FFFFFF" d="M31.9,29.5H22c-1.1,0-1.9,0.9-1.9,1.9c0,1.1,0.9,1.9,1.9,1.9h10c1.1,0,1.9-0.9,1.9-1.9
		C33.9,30.4,33,29.5,31.9,29.5"/>
	<circle fill="#FFFFFF" cx="39.7" cy="31.5" r="1.9"/>
</g>
</svg>
