<svg xmlns="http://www.w3.org/2000/svg" viewBox="0 0 54.15 54.15"><defs><style>.cls-1{fill:#ff4d00;}.cls-2{fill:#fff;}</style></defs><title>Asset 1</title><g id="Layer_2" data-name="Layer 2"><g id="Layer_1-2" data-name="Layer 1"><rect class="cls-1" width="54.15" height="54.15" rx="0.67"/><path class="cls-2" d="M26.54,34.47a.22.22,0,0,1-.22.23H23.43a.23.23,0,0,1-.23-.23V28.92a.23.23,0,0,0-.23-.23H18.05a.23.23,0,0,0-.23.23v5.55a.23.23,0,0,1-.23.23H14.71a.23.23,0,0,1-.23-.23V19.79a.23.23,0,0,1,.23-.23h2.88a.23.23,0,0,1,.23.23v5.57a.23.23,0,0,0,.23.23H23a.23.23,0,0,0,.23-.23V19.79a.23.23,0,0,1,.23-.23h2.89a.23.23,0,0,1,.22.23Z"/><path class="cls-2" d="M32.87,34.48a.23.23,0,0,1-.23.22h-2.8a.22.22,0,0,1-.23-.22V25a.22.22,0,0,1,.23-.22h2.8a.23.23,0,0,1,.23.22Z"/><circle class="cls-2" cx="31.23" cy="21.19" r="1.78"/><path class="cls-2" d="M39,34.48a.22.22,0,0,1-.23.22h-2.8a.23.23,0,0,1-.23-.22V25a.23.23,0,0,1,.23-.22h2.8A.22.22,0,0,1,39,25Z"/><circle class="cls-2" cx="37.33" cy="21.19" r="1.78"/></g></g></svg>