<?xml version="1.0" encoding="utf-8"?>
<!-- Generator: Adobe Illustrator 19.2.1, SVG Export Plug-In . SVG Version: 6.00 Build 0)  -->
<svg version="1.1" id="Layer_1" xmlns="http://www.w3.org/2000/svg" xmlns:xlink="http://www.w3.org/1999/xlink" x="0px" y="0px"
	 viewBox="0 0 300 300" enable-background="new 0 0 300 300" xml:space="preserve">
<g>
	<g>
		<path fill="#30B5C4" d="M283.1,32.1c-12.4,0-25.1,10-28.4,22.4l-52.2,194.9c-3.3,12.4,4,22.4,16.4,22.4c12.4,0,25.1-10,28.4-22.4
			l52.2-194.9C302.8,42.2,295.5,32.1,283.1,32.1"/>
		<path fill="#F05225" d="M81.4,32.1c-12.4,0-25.1,10-28.4,22.4L0.8,249.5c-3.3,12.4,4,22.4,16.4,22.4c12.4,0,25.1-10,28.4-22.4
			L97.8,54.5C101.1,42.2,93.8,32.1,81.4,32.1"/>
		<path fill="#75C044" d="M182.3,32.1c-12.4,0-25.1,10-28.4,22.4l-52.2,194.9c-3.3,12.4,4,22.4,16.4,22.4s25.1-10,28.4-22.4
			l52.2-194.9C202,42.2,194.6,32.1,182.3,32.1"/>
	</g>
</g>
</svg>
